<?xml version="1.0" standalone="no"?>
<!DOCTYPE svg PUBLIC "-//W3C//DTD SVG 20010904//EN"
 "http://www.w3.org/TR/2001/REC-SVG-20010904/DTD/svg10.dtd">
<svg version="1.0" xmlns="http://www.w3.org/2000/svg"
 width="1300.000000pt" height="1300.000000pt" viewBox="0 0 1300.000000 1300.000000"
 preserveAspectRatio="xMidYMid meet">

<g transform="translate(0.000000,1300.000000) scale(0.100000,-0.100000)"
fill="#000000" stroke="none">
<path d="M5164 10916 c-787 -177 -1443 -327 -1456 -333 -35 -16 -45 -59 -20
-92 17 -24 43 -31 283 -82 l264 -56 3 -1273 2 -1274 -32 -34 c-30 -30 -33 -38
-33 -97 0 -54 4 -67 25 -90 55 -59 131 -72 191 -32 84 56 91 174 14 235 l-25
20 0 1205 c0 775 4 1215 10 1232 6 16 24 32 47 42 36 14 46 13 220 -23 l183
-37 0 -2013 0 -2013 860 -973 c498 -563 871 -977 886 -983 19 -7 32 -5 50 5
14 8 405 449 870 980 l844 965 0 2022 c0 1917 1 2022 18 2027 9 3 241 55 516
116 274 61 506 115 516 120 19 10 30 32 30 60 0 52 33 43 -1406 379 -754 177
-1384 320 -1400 320 -16 -1 -673 -146 -1460 -323z m1557 168 c39 -9 69 -17 67
-19 -2 -2 -563 -135 -1248 -294 l-1245 -291 -107 22 c-59 12 -105 24 -102 27
8 9 2504 569 2537 570 15 1 60 -6 98 -15z m-1621 -2074 c36 -6 220 -30 410
-55 190 -25 360 -47 378 -50 l32 -6 0 -1299 0 -1300 -327 0 c-181 0 -392 -3
-470 -7 l-143 -6 0 1366 0 1367 28 0 c15 0 56 -5 92 -10z m3100 -1355 l0
-1365 -475 0 -475 0 0 763 c0 419 -3 1001 -7 1293 l-6 531 284 46 c156 26 343
54 414 62 106 12 205 25 258 34 4 0 7 -613 7 -1364z m-2025 1215 c33 -5 143
-21 245 -35 l184 -25 211 20 c115 11 227 22 248 25 l37 5 0 -1280 0 -1280
-515 0 -515 0 0 1290 0 1290 23 0 c12 0 49 -5 82 -10z m1398 -2719 l549 -6
-593 -677 -593 -678 -332 0 -332 0 -601 680 c-331 373 -601 682 -601 685 0 7
1787 4 2503 -4z"/>
<path d="M5676 2204 c-14 -13 -16 -55 -16 -302 0 -158 4 -292 8 -298 11 -17
35 -22 55 -12 16 8 17 33 17 306 0 301 -2 322 -36 322 -7 0 -20 -7 -28 -16z"/>
<path d="M7961 2206 c-8 -9 -11 -100 -9 -312 l3 -299 35 0 35 0 5 131 c6 147
16 175 74 194 27 9 41 8 69 -4 53 -22 61 -45 67 -191 l5 -130 32 -3 c42 -4 46
10 41 170 -3 115 -5 128 -30 165 -44 67 -137 97 -215 70 l-43 -15 0 107 c0
109 -7 131 -41 131 -9 0 -22 -6 -28 -14z"/>
<path d="M3616 1997 c-16 -11 -17 -28 -14 -158 3 -142 4 -147 31 -182 43 -57
78 -71 160 -64 l69 6 -5 -47 c-10 -93 -99 -124 -163 -56 -44 46 -78 44 -82 -4
-3 -27 3 -39 32 -66 87 -82 229 -58 277 48 16 36 19 68 19 271 0 127 -4 235
-8 241 -12 18 -39 23 -55 11 -13 -10 -16 -40 -19 -145 -3 -133 -3 -134 -31
-158 -41 -35 -88 -32 -121 7 -25 29 -26 35 -26 159 0 118 -2 130 -19 140 -24
13 -24 13 -45 -3z"/>
<path d="M4130 1997 c-48 -15 -113 -83 -128 -133 -18 -62 -15 -105 13 -161 35
-69 88 -106 165 -111 136 -10 229 73 230 206 0 145 -138 244 -280 199z m120
-83 c73 -29 101 -114 60 -181 -53 -88 -180 -81 -224 12 -38 80 20 172 116 184
4 1 26 -6 48 -15z"/>
<path d="M4476 1994 c-13 -12 -16 -39 -16 -132 0 -140 11 -187 55 -228 83 -78
218 -55 270 47 19 36 22 298 3 317 -16 16 -33 15 -52 -4 -13 -12 -16 -40 -16
-143 0 -125 -1 -129 -26 -155 -35 -35 -86 -35 -119 -1 -24 23 -25 30 -25 147
0 96 -4 129 -16 146 -18 26 -37 28 -58 6z"/>
<path d="M5008 2000 c-52 -16 -98 -52 -126 -98 -25 -44 -27 -54 -27 -171 0
-116 1 -124 22 -138 19 -13 24 -12 42 6 19 19 21 33 21 126 0 115 11 150 54
179 14 9 37 16 51 16 24 0 65 31 65 49 0 18 -31 41 -53 40 -12 0 -34 -4 -49
-9z"/>
<path d="M5435 1996 c-45 -20 -67 -50 -72 -99 -9 -76 30 -123 114 -141 44 -10
59 -30 45 -61 -15 -33 -56 -34 -77 -1 -20 31 -41 39 -66 26 -43 -23 -4 -99 64
-125 43 -16 47 -16 90 3 70 31 97 104 63 171 -20 39 -40 53 -94 66 -53 14 -73
36 -56 63 18 28 54 27 81 -2 29 -31 58 -33 73 -6 8 15 8 27 -2 47 -28 57 -106
86 -163 59z"/>
<path d="M5948 2000 c-146 -44 -201 -219 -106 -334 42 -51 95 -76 163 -76 97
0 175 57 201 148 20 66 12 116 -27 177 -47 74 -146 111 -231 85z m130 -98 c32
-21 52 -64 52 -113 0 -35 -6 -48 -39 -80 -34 -34 -44 -39 -86 -39 -42 0 -52 5
-86 39 -33 32 -39 45 -39 80 0 112 107 173 198 113z"/>
<path d="M6406 1995 c-166 -59 -183 -299 -27 -382 56 -29 141 -31 194 -4 l37
19 0 -29 c0 -82 -55 -139 -133 -139 -47 0 -54 3 -93 45 -45 49 -77 57 -94 25
-24 -44 57 -130 141 -150 106 -26 213 34 248 139 6 19 11 97 11 180 0 167 -12
206 -74 258 -63 51 -136 65 -210 38z m142 -92 c30 -18 62 -71 62 -101 0 -38
-31 -93 -64 -113 -90 -55 -207 20 -193 124 12 92 116 140 195 90z"/>
<path d="M6898 2000 c-171 -51 -209 -277 -65 -377 50 -35 157 -45 208 -19 29
15 34 15 50 0 9 -8 28 -14 41 -12 22 3 23 6 26 123 3 142 -9 186 -68 239 -55
49 -125 66 -192 46z m120 -94 c57 -31 79 -118 46 -176 -58 -98 -210 -71 -238
42 -9 39 21 106 58 129 36 22 100 24 134 5z"/>
<path d="M7368 2000 c-112 -34 -157 -117 -158 -288 0 -93 10 -122 43 -122 41
0 47 17 47 132 0 76 4 118 14 137 41 78 153 88 210 20 24 -28 26 -38 26 -134
0 -121 9 -155 43 -155 40 0 47 17 47 124 0 161 -27 222 -119 269 -55 27 -102
33 -153 17z"/>
<path d="M8510 1997 c-72 -24 -140 -120 -140 -198 0 -75 61 -168 127 -196 49
-20 147 -17 192 7 44 22 56 43 41 71 -13 23 -26 24 -73 4 -68 -28 -135 -15
-174 33 -31 38 -19 42 142 42 138 0 155 2 164 18 13 24 -5 103 -33 144 -45 67
-163 103 -246 75z m143 -89 c20 -10 52 -56 45 -64 -3 -2 -58 -3 -123 -2 l-118
3 27 32 c41 49 111 62 169 31z"/>
<path d="M8985 1994 c-48 -18 -90 -56 -116 -106 -16 -31 -19 -59 -19 -162 0
-109 2 -126 18 -134 19 -10 43 -5 54 12 4 6 8 62 8 125 l0 113 38 38 c26 26
49 39 79 44 35 5 44 11 49 33 13 49 -35 65 -111 37z"/>
<path d="M9236 1995 c-166 -59 -183 -299 -26 -382 38 -21 56 -24 117 -21 82 4
126 28 131 71 4 34 -33 45 -76 23 -59 -31 -141 -14 -176 36 -9 12 -16 26 -16
30 0 4 73 9 163 10 l162 3 3 34 c5 50 -24 115 -68 155 -60 54 -137 69 -214 41z
m131 -84 c35 -17 63 -45 63 -65 0 -3 -54 -6 -120 -6 -66 0 -120 4 -120 8 0 13
53 60 80 71 36 14 50 13 97 -8z"/>
</g>
</svg>
